<svg version="1.2" xmlns="http://www.w3.org/2000/svg" viewBox="0 0 3710 3710" width="3710" height="3710">
	<defs>
		<linearGradient id="g1" x2="1" gradientUnits="userSpaceOnUse" gradientTransform="matrix(-2007.744,-1756.775,1874.825,-2142.659,3426.279,3264.047)">
			<stop offset="0" stop-color="#dae3fe"/>
			<stop offset="1" stop-color="#e9effd"/>
		</linearGradient>
		<linearGradient id="g2" x2="1" gradientUnits="userSpaceOnUse" gradientTransform="matrix(-709.121,1161.607,-1561.901,-953.486,2678.101,787.521)">
			<stop offset="0" stop-color="#09005d"/>
			<stop offset="1" stop-color="#1a0f91"/>
		</linearGradient>
		<linearGradient id="g3" x2="1" gradientUnits="userSpaceOnUse" gradientTransform="matrix(-17.116,693.214,-2625.785,-64.833,1396.243,2191.934)">
			<stop offset="0" stop-color="#4f52ff"/>
			<stop offset="1" stop-color="#4042e2"/>
		</linearGradient>
		<linearGradient id="g4" x2="1" gradientUnits="userSpaceOnUse" gradientTransform="matrix(-451.101,233.012,-176.958,-342.583,1209.364,1876.295)">
			<stop offset="0" stop-color="#09005d"/>
			<stop offset="1" stop-color="#1a0f91"/>
		</linearGradient>
		<linearGradient id="g5" x2="1" gradientUnits="userSpaceOnUse" gradientTransform="matrix(-309.168,176.468,-447.389,-783.813,1534.297,2339.856)">
			<stop offset="0" stop-color="#febbba"/>
			<stop offset="1" stop-color="#ff928e"/>
		</linearGradient>
		<linearGradient id="g6" x2="1" gradientUnits="userSpaceOnUse" gradientTransform="matrix(37.756,1576.261,-1934.571,46.338,1486.852,4300.975)">
			<stop offset="0" stop-color="#09005d"/>
			<stop offset="1" stop-color="#1a0f91"/>
		</linearGradient>
		<linearGradient id="g7" x2="1" gradientUnits="userSpaceOnUse" gradientTransform="matrix(1057.822,-662.213,1688.571,2697.331,1504.389,2383.865)">
			<stop offset="0" stop-color="#febbba"/>
			<stop offset="1" stop-color="#ff928e"/>
		</linearGradient>
		<linearGradient id="g8" x2="1" gradientUnits="userSpaceOnUse" gradientTransform="matrix(-282.08,1551.247,-1903.968,-346.219,-783.939,14555.554)">
			<stop offset="0" stop-color="#09005d"/>
			<stop offset="1" stop-color="#1a0f91"/>
		</linearGradient>
		<linearGradient id="g9" x2="1" gradientUnits="userSpaceOnUse" gradientTransform="matrix(-380.809,688.383,-679.545,-375.919,1175.005,2147.204)">
			<stop offset="0" stop-color="#09005d"/>
			<stop offset="1" stop-color="#1a0f91"/>
		</linearGradient>
		<linearGradient id="g10" x2="1" gradientUnits="userSpaceOnUse" gradientTransform="matrix(-440.645,476.1,-296.196,-274.138,1783.774,1336.534)">
			<stop offset="0" stop-color="#ff928e"/>
			<stop offset="1" stop-color="#fe7062"/>
		</linearGradient>
		<linearGradient id="g11" x2="1" gradientUnits="userSpaceOnUse" gradientTransform="matrix(21.006,-134.787,102.108,15.913,1089.759,2066.287)">
			<stop offset="0" stop-color="#febbba"/>
			<stop offset="1" stop-color="#ff928e"/>
		</linearGradient>
		<linearGradient id="g12" x2="1" gradientUnits="userSpaceOnUse" gradientTransform="matrix(-307.978,0,0,-71.133,992.8,2238.137)">
			<stop offset="0" stop-color="#febbba"/>
			<stop offset="1" stop-color="#ff928e"/>
		</linearGradient>
		<linearGradient id="g13" x2="1" gradientUnits="userSpaceOnUse" gradientTransform="matrix(158.738,52.063,-20.154,61.449,1006.922,2234.58)">
			<stop offset="0" stop-color="#4f52ff"/>
			<stop offset="1" stop-color="#4042e2"/>
		</linearGradient>
		<linearGradient id="g14" x2="1" gradientUnits="userSpaceOnUse" gradientTransform="matrix(114.316,120.825,-183.243,173.371,1224.98,2130.5)">
			<stop offset="0" stop-color="#09005d"/>
			<stop offset="1" stop-color="#1a0f91"/>
		</linearGradient>
		<linearGradient id="g15" x2="1" gradientUnits="userSpaceOnUse" gradientTransform="matrix(48.617,-320.671,240.626,36.482,1119.012,2008.482)">
			<stop offset="0" stop-color="#febbba"/>
			<stop offset="1" stop-color="#ff928e"/>
		</linearGradient>
		<linearGradient id="g16" x2="1" gradientUnits="userSpaceOnUse" gradientTransform="matrix(-471.181,243.384,-143.566,-277.937,1206.533,1818.468)">
			<stop offset="0" stop-color="#09005d"/>
			<stop offset="1" stop-color="#1a0f91"/>
		</linearGradient>
		<linearGradient id="g17" x2="1" gradientUnits="userSpaceOnUse" gradientTransform="matrix(48.617,-320.664,180.288,27.334,1080.657,2002.666)">
			<stop offset="0" stop-color="#febbba"/>
			<stop offset="1" stop-color="#ff928e"/>
		</linearGradient>
		<linearGradient id="g18" x2="1" gradientUnits="userSpaceOnUse" gradientTransform="matrix(148.576,-712.492,1145.5,238.871,514.917,8660.718)">
			<stop offset="0" stop-color="#ff928e"/>
			<stop offset="1" stop-color="#fe7062"/>
		</linearGradient>
		<linearGradient id="g19" x2="1" gradientUnits="userSpaceOnUse" gradientTransform="matrix(148.577,-712.495,1314.079,274.025,431.512,8643.314)">
			<stop offset="0" stop-color="#ff928e"/>
			<stop offset="1" stop-color="#fe7062"/>
		</linearGradient>
		<linearGradient id="g20" x2="1" gradientUnits="userSpaceOnUse" gradientTransform="matrix(-472.744,891.461,-1024.525,-543.308,-3379.729,12459.996)">
			<stop offset="0" stop-color="#ff928e"/>
			<stop offset="1" stop-color="#fe7062"/>
		</linearGradient>
		<linearGradient id="g21" x2="1" gradientUnits="userSpaceOnUse" gradientTransform="matrix(-472.747,891.468,-1866.72,-989.926,-3322.109,12490.598)">
			<stop offset="0" stop-color="#ff928e"/>
			<stop offset="1" stop-color="#fe7062"/>
		</linearGradient>
		<linearGradient id="g22" x2="1" gradientUnits="userSpaceOnUse" gradientTransform="matrix(0,830.68,-1584.164,0,1003.431,1069.899)">
			<stop offset="0" stop-color="#ff928e"/>
			<stop offset="1" stop-color="#fe7062"/>
		</linearGradient>
		<linearGradient id="g23" x2="1" gradientUnits="userSpaceOnUse" gradientTransform="matrix(0,830.682,-1467.593,0,1057.754,1069.899)">
			<stop offset="0" stop-color="#ff928e"/>
			<stop offset="1" stop-color="#fe7062"/>
		</linearGradient>
		<linearGradient id="g24" x2="1" gradientUnits="userSpaceOnUse" gradientTransform="matrix(736.001,1552.829,-663.025,314.257,2214.489,1506.597)">
			<stop offset="0" stop-color="#09005d"/>
			<stop offset="1" stop-color="#1a0f91"/>
		</linearGradient>
		<linearGradient id="g25" x2="1" gradientUnits="userSpaceOnUse" gradientTransform="matrix(-113.344,0,0,-88.675,3047.917,3201.195)">
			<stop offset="0" stop-color="#09005d"/>
			<stop offset="1" stop-color="#1a0f91"/>
		</linearGradient>
		<linearGradient id="g26" x2="1" gradientUnits="userSpaceOnUse" gradientTransform="matrix(412.35,323.778,-253.396,322.714,2764.165,3067.481)">
			<stop offset="0" stop-color="#4f52ff"/>
			<stop offset="1" stop-color="#4042e2"/>
		</linearGradient>
		<linearGradient id="g27" x2="1" gradientUnits="userSpaceOnUse" gradientTransform="matrix(-151.157,0,0,-155.808,3199.903,2423.523)">
			<stop offset="0" stop-color="#febbba"/>
			<stop offset="1" stop-color="#ff928e"/>
		</linearGradient>
		<linearGradient id="g28" x2="1" gradientUnits="userSpaceOnUse" gradientTransform="matrix(21.651,188.954,-151.74,17.387,3016.397,3072.157)">
			<stop offset="0" stop-color="#febbba"/>
			<stop offset="1" stop-color="#ff928e"/>
		</linearGradient>
		<linearGradient id="g29" x2="1" gradientUnits="userSpaceOnUse" gradientTransform="matrix(412.35,323.778,-265.137,337.667,2690.914,3160.77)">
			<stop offset="0" stop-color="#4f52ff"/>
			<stop offset="1" stop-color="#4042e2"/>
		</linearGradient>
		<linearGradient id="g30" x2="1" gradientUnits="userSpaceOnUse" gradientTransform="matrix(-163.158,0,0,-78.973,2875.324,3204.209)">
			<stop offset="0" stop-color="#09005d"/>
			<stop offset="1" stop-color="#1a0f91"/>
		</linearGradient>
		<linearGradient id="g31" x2="1" gradientUnits="userSpaceOnUse" gradientTransform="matrix(21.651,188.953,-127.164,14.571,2840.036,3092.365)">
			<stop offset="0" stop-color="#febbba"/>
			<stop offset="1" stop-color="#ff928e"/>
		</linearGradient>
		<linearGradient id="g32" x2="1" gradientUnits="userSpaceOnUse" gradientTransform="matrix(692.47,1074.523,-933.571,601.634,2582.788,2228.319)">
			<stop offset="0" stop-color="#4f52ff"/>
			<stop offset="1" stop-color="#4042e2"/>
		</linearGradient>
		<linearGradient id="g33" x2="1" gradientUnits="userSpaceOnUse" gradientTransform="matrix(1094.012,-678.692,794.782,1281.141,-20772.835,16936.615)">
			<stop offset="0" stop-color="#ff928e"/>
			<stop offset="1" stop-color="#fe7062"/>
		</linearGradient>
		<linearGradient id="g34" x2="1" gradientUnits="userSpaceOnUse" gradientTransform="matrix(88.818,383.821,-323.814,74.932,2968.214,1847.874)">
			<stop offset="0" stop-color="#febbba"/>
			<stop offset="1" stop-color="#ff928e"/>
		</linearGradient>
		<linearGradient id="g35" x2="1" gradientUnits="userSpaceOnUse" gradientTransform="matrix(-40.745,239.767,-196.844,-33.451,2982.265,1780.512)">
			<stop offset="0" stop-color="#febbba"/>
			<stop offset="1" stop-color="#ff928e"/>
		</linearGradient>
		<linearGradient id="g36" x2="1" gradientUnits="userSpaceOnUse" gradientTransform="matrix(-120.075,-127.555,166.002,-156.266,3025.11,1894.001)">
			<stop offset="0" stop-color="#09005d"/>
			<stop offset="1" stop-color="#1a0f91"/>
		</linearGradient>
		<linearGradient id="g37" x2="1" gradientUnits="userSpaceOnUse" gradientTransform="matrix(7.248,-168.37,172.114,7.409,3017.618,2042.22)">
			<stop offset="0" stop-color="#febbba"/>
			<stop offset="1" stop-color="#ff928e"/>
		</linearGradient>
		<linearGradient id="g38" x2="1" gradientUnits="userSpaceOnUse" gradientTransform="matrix(-1040.042,1249.401,-868.277,-722.782,3732.393,1410.262)">
			<stop offset="0" stop-color="#e1473d"/>
			<stop offset="1" stop-color="#e9605a"/>
		</linearGradient>
		<linearGradient id="g39" x2="1" gradientUnits="userSpaceOnUse" gradientTransform="matrix(70.908,734.408,-909.369,87.801,2909.704,1481.545)">
			<stop offset="0" stop-color="#09005d"/>
			<stop offset="1" stop-color="#1a0f91"/>
		</linearGradient>
		<linearGradient id="g40" x2="1" gradientUnits="userSpaceOnUse" gradientTransform="matrix(1094.014,-678.692,516.178,832.05,-20917.716,16703.082)">
			<stop offset="0" stop-color="#ff928e"/>
			<stop offset="1" stop-color="#fe7062"/>
		</linearGradient>
		<linearGradient id="g41" x2="1" gradientUnits="userSpaceOnUse" gradientTransform="matrix(89.444,292.307,-109.643,33.55,2433.699,1710.842)">
			<stop offset="0" stop-color="#febbba"/>
			<stop offset="1" stop-color="#ff928e"/>
		</linearGradient>
		<linearGradient id="g42" x2="1" gradientUnits="userSpaceOnUse" gradientTransform="matrix(89.444,292.307,-211.666,64.769,2398.873,1721.498)">
			<stop offset="0" stop-color="#febbba"/>
			<stop offset="1" stop-color="#ff928e"/>
		</linearGradient>
	</defs>
	<style>
		.s0 { fill: url(#g1) } 
		.s1 { fill: #bdd0fb } 
		.s2 { opacity: .57;fill: #ffffff } 
		.s3 { fill: #91b3fa } 
		.s4 { fill: #7d97f4 } 
		.s5 { opacity: .15;fill: #ffffff } 
		.s6 { fill: #ffffff } 
		.s7 { fill: url(#g2) } 
		.s8 { fill: url(#g3) } 
		.s9 { fill: url(#g4) } 
		.s10 { fill: url(#g5) } 
		.s11 { fill: url(#g6) } 
		.s12 { fill: url(#g7) } 
		.s13 { fill: url(#g8) } 
		.s14 { fill: url(#g9) } 
		.s15 { fill: url(#g10) } 
		.s16 { fill: url(#g11) } 
		.s17 { fill: url(#g12) } 
		.s18 { fill: url(#g13) } 
		.s19 { fill: url(#g14) } 
		.s20 { fill: url(#g15) } 
		.s21 { fill: url(#g16) } 
		.s22 { fill: url(#g17) } 
		.s23 { fill: url(#g18) } 
		.s24 { fill: url(#g19) } 
		.s25 { fill: url(#g20) } 
		.s26 { fill: url(#g21) } 
		.s27 { fill: url(#g22) } 
		.s28 { fill: url(#g23) } 
		.s29 { fill: url(#g24) } 
		.s30 { fill: url(#g25) } 
		.s31 { fill: url(#g26) } 
		.s32 { fill: url(#g27) } 
		.s33 { fill: url(#g28) } 
		.s34 { fill: url(#g29) } 
		.s35 { fill: url(#g30) } 
		.s36 { fill: url(#g31) } 
		.s37 { fill: url(#g32) } 
		.s38 { fill: url(#g33) } 
		.s39 { fill: url(#g34) } 
		.s40 { fill: url(#g35) } 
		.s41 { fill: url(#g36) } 
		.s42 { fill: url(#g37) } 
		.s43 { fill: url(#g38) } 
		.s44 { fill: url(#g39) } 
		.s45 { fill: url(#g40) } 
		.s46 { fill: url(#g41) } 
		.s47 { fill: url(#g42) } 
	</style>
	<g id="Illustration">
		<g>
			<path class="s0" d="m3085.07 2351.68c-259.48 610.97-950.68 953.24-1550.09 860.92-97.54-15.03-364.94-59.78-601.68-270.91-455.75-406.43-553.21-1211.22-185.57-1778.38 267.57-412.79 747.23-646.78 1202.99-635.08 98.18 2.52 474.41 18.06 805.06 290.71 48.57 40.04 155.68 135.2 252.22 286.17 226.69 354.49 246.17 848.39 77.07 1246.57z"/>
			<g>
				<path class="s1" d="m1647.16 1610.38c-10.01-169.92-74.7-319.86-170.27-422.75-85.43-91.97-133.02-213.32-130.25-338.7q0.44-19.77-0.74-40.02c-12.04-204.35-147.01-362.64-301.46-353.54-154.46 9.1-269.91 182.14-257.87 386.49 2.46 41.79 10.07 81.64 21.93 118.52 37.86 117.71 31.9 245.74-21.32 357.41-47.55 99.8-71.89 219.65-64.39 347.04 11.19 189.99 90.75 355.02 205.4 457.21 43.37 38.66 79.57 84.97 106.2 136.54 44.24 85.72 123.22 140.91 209.94 135.8 93.54-5.51 169.91-79.65 199.82-181.32 16.93-57.53 44.96-110.99 80.78-159.14 84.55-113.68 132.35-271.75 122.23-443.54z"/>
				<path class="s2" d="m1111.33 669.58c28.13 133.87 51.94 268.53 74.34 403.44 5.62 33.73 10.69 67.54 15.87 101.33l7.77 50.7 7.34 50.75c4.76 33.86 9.99 67.66 14.37 101.57l13.14 101.73c7.9 67.94 16.37 135.8 23.01 203.88 3.36 34.03 7.39 67.99 10.06 102.1l8.49 102.25c9.94 136.43 16.46 273.19 16.05 410l-5.9 0.04-3.59-102.37-0.84-25.59-1.48-25.57-3.06-51.12-2.96-51.11c-0.95-17.04-2.54-34.05-3.78-51.07-2.71-34.04-5.15-68.09-8.08-102.1-12.61-135.98-27.01-271.79-44.22-407.29-9.12-67.69-17.66-135.44-27.26-203.07l-7.05-50.73-7.48-50.68c-4.97-33.79-9.94-67.58-15.24-101.32-10.05-67.56-20.57-135.06-31.65-202.47-10.72-67.47-22.08-134.85-33.64-202.17z"/>
			</g>
			<g>
				<path class="s3" d="m1103.96 1488.49c-29.82-102.15-90.1-184.51-162.57-233.9-64.79-44.16-110.67-111.48-126.5-188.27q-2.49-12.11-6.04-24.28c-35.87-122.85-140.03-200.52-232.65-173.48-92.63 27.05-138.64 148.56-102.77 271.41 7.33 25.12 17.52 48.34 29.89 69.17 39.46 66.46 53.72 145.3 36.97 220.76-14.97 67.43-13.02 143.85 9.34 220.43 33.34 114.22 104.76 203.71 188.74 250.02 31.76 17.52 60.24 40.7 83.63 68.43 38.87 46.07 94.59 68.71 146.6 53.52 56.1-16.37 92.16-72.18 96.14-138.3 2.25-37.41 11.83-73.89 26.88-108.22 35.52-81.04 42.49-184.01 12.34-287.29z"/>
				<path class="s2" d="m646.78 989.78c35.81 77.66 69.1 156.41 101.56 235.5 8.13 19.77 15.94 39.67 23.81 59.54l11.8 29.81 11.55 29.91c7.63 19.97 15.53 39.83 22.93 59.89l22.2 60.16c14.29 40.3 28.92 80.47 42.47 121.04 6.8 20.26 13.99 40.4 20.38 60.81l19.44 61.12c25.11 81.76 48.18 164.19 67.04 247.61l-3.58 0.85-16.48-61.89-4.09-15.47-4.47-15.37-9-30.73-8.94-30.74c-2.97-10.25-6.31-20.39-9.44-30.59-6.4-20.36-12.64-40.77-19.17-61.09-26.66-81.11-54.39-161.86-83.79-242.03-15-39.98-29.65-80.08-44.93-119.95l-11.38-29.94-11.63-29.84c-7.74-19.9-15.48-39.79-23.42-59.61q-23.3-59.67-47.52-118.98c-15.94-39.62-32.26-79.1-48.7-118.51z"/>
			</g>
			<g>
				<path fill-rule="evenodd" class="s4" d="m3234.51 1797.55c-26.89 612.05-582.65 1083.32-1243.31 1054.29-660.65-29.03-1172.93-547.23-1146.03-1159.29 26.9-612.06 582.65-1083.32 1243.31-1054.29 660.65 29.03 1172.93 547.23 1146.03 1159.29z"/>
				<path fill-rule="evenodd" class="s5" d="m1975.1 2551.44c-518.93 0-938.39-396.25-938.39-886.48 0-490.22 419.46-886.47 938.39-886.47 518.93 0 938.38 396.25 938.38 886.47 0 490.23-419.45 886.48-938.38 886.48z"/>
				<g style="opacity: .68">
					<path class="s6" d="m2345.33 1750.25c-0.29 195.4-13.69 391.2-48.13 583.84-8.71 48.12-18.82 96.01-30.86 143.44-12.08 47.42-26.03 94.42-43.1 140.38-17.22 45.83-37.2 91.01-64.3 132.3-13.65 20.49-29.14 40.13-48.26 56.28-9.55 8.03-20.04 15.15-31.58 20.36-11.52 5.18-24.11 8.46-36.88 8.69-12.76 0.37-25.54-2.12-37.28-6.85-11.79-4.69-22.54-11.49-32.33-19.24-19.57-15.66-35.4-35.08-49.29-55.41-27.58-40.99-47.84-86.08-65.23-131.85-17.29-45.87-31.38-92.84-43.56-140.23-12.16-47.4-22.37-95.27-31.16-143.37-17.54-96.23-29.51-193.38-37.58-290.8-8.02-97.44-12.04-195.19-12.53-292.95-0.24-48.87 1.09-97.74 2.83-146.58q2.74-73.26 8.12-146.38c7.23-97.46 18.02-194.71 34.07-291.16 8.06-48.21 17.45-96.22 28.75-143.8 11.32-47.57 24.48-94.76 40.81-140.93 8.2-23.06 17.17-45.88 27.4-68.16 10.22-22.27 21.65-44.06 35.09-64.66 13.46-20.51 28.94-40.09 48.22-55.76 9.64-7.77 20.26-14.52 31.89-19.1 11.58-4.64 24.16-6.99 36.66-6.51 12.51 0.35 24.85 3.47 36.23 8.48 11.39 5.04 21.87 11.89 31.48 19.65 19.23 15.63 35.15 34.74 49.27 54.8 28.07 40.4 49.23 84.96 67.56 130.3 18.2 45.46 33.22 92.1 46.31 139.23 13.04 47.14 24.08 94.81 33.64 142.76 37.81 191.97 53.17 387.79 53.74 583.23zm-14.47 0c0.18-97.37-3.52-194.75-11.61-291.78-7.98-97.02-20.06-193.77-38.07-289.44-8.99-47.83-19.46-95.39-31.92-142.42-12.5-47.01-26.93-93.54-44.5-138.86-17.7-45.2-38.22-89.6-65.46-129.72-13.68-19.92-29.13-38.84-47.66-54.23-9.26-7.64-19.31-14.37-30.19-19.32-10.87-4.89-22.58-8.09-34.49-8.4-11.89-0.38-23.78 2.01-34.78 6.54-11.05 4.49-21.19 11.08-30.43 18.7-18.5 15.37-33.49 34.7-46.51 55.02-13 20.42-24.07 42.07-33.94 64.23-9.88 22.17-18.54 44.89-26.43 67.87-15.7 46.01-28.28 93.07-39.03 140.52-10.72 47.46-19.55 95.36-27.04 143.46-14.94 96.22-24.64 193.22-30.78 290.41-6.2 97.2-8.34 194.61-8.17 291.99-0.26 97.36 3 194.75 10.23 291.84 7.3 97.08 18.47 193.92 35.19 289.8 8.38 47.93 18.16 95.62 29.89 142.82 11.74 47.17 25.37 93.91 42.14 139.47 16.86 45.45 36.58 90.15 63.24 130.42 13.41 19.97 28.67 38.9 47.17 53.91 9.24 7.45 19.3 13.9 30.17 18.31 10.84 4.43 22.47 6.88 34.13 6.49 11.65-0.3 23.13-3.38 33.78-8.26 10.68-4.93 20.52-11.7 29.56-19.41 18.1-15.53 33.03-34.71 46.21-54.85 26.18-40.58 45.62-85.39 62.29-130.91 16.55-45.64 30.03-92.42 41.65-139.63 11.59-47.22 21.26-94.93 29.56-142.88 16.61-95.9 27.64-192.75 34.97-289.83 7.44-97.08 10.87-194.48 10.83-291.86z"/>
					<path class="s6" d="m2838.27 1750.25c-0.68 125.83-16.85 251.72-50.54 373.07-34.27 121.07-85.94 237.54-156.08 342.11-35.08 52.23-74.81 101.39-119.22 145.99-44.38 44.59-93.47 84.6-146.75 118.14-53.33 33.4-110.93 60.15-171.23 78.29-60.26 18.19-123.17 27.67-186.13 27.74-62.97-0.01-125.89-9.44-186.19-27.58-60.32-18.09-117.97-44.79-171.36-78.16-53.34-33.5-102.49-73.48-146.95-118.05-44.47-44.58-84.29-93.73-119.45-145.96-70.28-104.58-122.06-221.11-156.49-342.23-16.95-60.68-29.55-122.55-37.89-184.98-8.3-62.43-12.47-125.4-12.76-188.38 0.33-62.99 4.54-125.94 12.88-188.37 8.38-62.41 21.02-124.27 38.01-184.92 34.52-121.08 86.38-237.52 156.71-342 35.17-52.17 74.99-101.27 119.46-145.79 44.46-44.51 93.58-84.45 146.91-117.84 53.37-33.29 111-59.79 171.22-77.88 60.19-18.16 123.01-27.63 185.9-27.69 62.88 0.11 125.69 9.64 185.84 27.84 60.2 18.14 117.78 44.69 171.09 78.01 53.27 33.44 102.33 73.41 146.71 117.94 44.4 44.54 84.14 93.64 119.23 145.82 70.19 104.46 121.94 220.86 156.29 341.88 33.77 121.3 50.03 247.16 50.79 373zm-16.58 0c-0.18-124.41-15.68-248.95-48.51-369.04-33-119.9-82.7-235.66-151.12-339.76-34.19-52-73.03-101.01-116.52-145.56-43.51-44.48-91.57-84.73-144.14-118.18-52.62-33.26-109.45-60.03-169.04-78.14-59.56-18.12-121.74-27.65-184.04-27.86-62.3 0.26-124.47 9.84-184 28.01-59.56 18.16-116.34 44.98-168.91 78.28-52.5 33.49-100.49 73.77-143.93 118.27-43.42 44.57-82.17 93.59-116.29 145.59-68.27 104.09-117.87 219.79-150.71 339.64-16.36 59.99-28.21 121.16-36.24 182.79-8.04 61.63-12.01 123.79-12.15 185.96 0.18 62.17 4.19 124.32 12.27 185.95 8.07 61.61 19.96 122.77 36.37 182.73 32.92 119.8 82.6 235.43 150.92 339.41 34.13 51.95 72.89 100.91 116.3 145.43 43.44 44.43 91.4 84.67 143.89 118.05 52.56 33.21 109.32 59.84 168.78 77.99 59.42 18.2 121.48 27.82 183.7 28.13 62.22-0.25 124.3-9.82 183.75-27.96 59.49-18.1 116.3-44.69 168.91-77.87 52.55-33.35 100.58-73.55 144.09-117.97 43.49-44.49 82.33-93.45 116.53-145.39 68.47-104 118.25-219.68 151.34-339.53 32.9-120.05 48.48-244.57 48.75-368.97z"/>
					<path class="s6" d="m1039.84 1320.78l249.24-2.02 249.24-1.14 498.49-0.92 498.49 1.02 249.24 1.24 249.25 2.18c0.4 0 0.73 0.33 0.72 0.74 0 0.39-0.32 0.72-0.72 0.72l-249.25 2.17-249.24 1.25-498.49 1.01-498.49-0.92-249.24-1.14-249.24-2.01c-0.61-0.01-1.09-0.5-1.09-1.1 0.01-0.6 0.49-1.08 1.09-1.08z"/>
					<path class="s6" d="m1328.99 903.32c58.98-0.94 117.97-1.34 176.95-2.02l176.96-1.14c58.98-0.48 117.97-0.43 176.96-0.58l176.95-0.34 353.91 1.01 176.96 1.25c58.98 0.74 117.97 1.17 176.95 2.17 0.41 0.01 0.73 0.34 0.72 0.75 0 0.39-0.32 0.71-0.72 0.72-58.98 1-117.97 1.43-176.95 2.17l-176.96 1.25-353.91 1.01-176.95-0.34c-58.99-0.15-117.98-0.09-176.96-0.58l-176.96-1.14c-58.98-0.68-117.97-1.08-176.95-2.01-0.6-0.01-1.08-0.51-1.08-1.11 0.01-0.59 0.49-1.06 1.08-1.07z"/>
					<path class="s6" d="m953.22 1738.24l270.9-2.01 270.9-1.14 541.79-0.93 541.8 1.02 270.9 1.24 270.89 2.18c0.41 0 0.73 0.33 0.73 0.74 0 0.4-0.33 0.72-0.73 0.72l-270.89 2.17-270.9 1.25-541.8 1.01-541.79-0.92-270.9-1.14-270.9-2.01c-0.6-0.01-1.08-0.5-1.08-1.1 0-0.59 0.49-1.08 1.08-1.08z"/>
					<path class="s6" d="m1039.84 2155.7l249.24-2.01 249.24-1.14 498.49-0.92 498.49 1.01 249.24 1.25 249.25 2.17c0.4 0.01 0.73 0.34 0.72 0.74 0 0.4-0.32 0.72-0.72 0.72l-249.25 2.18-249.24 1.24-498.49 1.02-498.49-0.92-249.24-1.14-249.24-2.02c-0.61 0-1.09-0.49-1.09-1.1 0.01-0.59 0.49-1.07 1.09-1.08z"/>
					<path class="s6" d="m2780.3 2578.08h-1415.65c-2.11 0-3.82-1.71-3.82-3.82 0-2.11 1.71-3.82 3.82-3.82h1415.65c2.11 0 3.82 1.71 3.82 3.82 0 2.11-1.71 3.82-3.82 3.82z"/>
				</g>
			</g>
			<g>
				<g>
					<g>
						<path class="s3" d="m500.39 3164.89h1614.75v-323.19h-1614.75c34.56 0 34.56 323.19 0 323.19z"/>
						<path class="s7" d="m2115.14 3084.01v-147.91c0-52.14-31.91-94.4-71.27-94.4h-1536.67c-30.96 0-56.05-25.1-56.05-56.05 0-9.41 7.62-17.03 17.03-17.03h1679.46c38.51 0 99.66 60.55 99.66 135.25v206.57c0 70.43-59.36 127.53-95.67 127.53h-1674.62c-14.28 0-25.86-11.58-25.86-25.87 0-26.07 21.14-47.21 47.21-47.21h1555.72c33.72 0 61.06-36.21 61.06-80.88z"/>
					</g>
					<path class="s6" d="m2070.36 2911.39h-1514.05c-1.87 0-3.38-1.51-3.38-3.38 0-1.87 1.51-3.38 3.38-3.38h1514.05c1.86 0 3.37 1.51 3.37 3.38 0 1.87-1.51 3.38-3.37 3.38z"/>
					<path class="s6" d="m2070.36 2959.36h-1514.05c-1.87 0-3.38-1.51-3.38-3.38 0-1.87 1.51-3.38 3.38-3.38h1514.05c1.86 0 3.37 1.51 3.37 3.38 0 1.87-1.51 3.38-3.37 3.38z"/>
					<path class="s6" d="m2070.36 3007.33h-1514.05c-1.87 0-3.38-1.51-3.38-3.38 0-1.86 1.51-3.37 3.38-3.37h1514.05c1.86 0 3.37 1.51 3.37 3.37 0 1.87-1.51 3.38-3.37 3.38z"/>
					<path class="s6" d="m2070.36 3055.3h-1514.05c-1.87 0-3.38-1.51-3.38-3.38 0-1.86 1.51-3.37 3.38-3.37h1514.05c1.86 0 3.37 1.51 3.37 3.37 0 1.87-1.51 3.38-3.37 3.38z"/>
					<path class="s6" d="m2070.36 3103.27h-1514.05c-1.87 0-3.38-1.51-3.38-3.37 0-1.87 1.51-3.38 3.38-3.38h1514.05c1.86 0 3.37 1.51 3.37 3.38 0 1.86-1.51 3.37-3.37 3.37z"/>
				</g>
				<g>
					<path class="s8" d="m679.98 2767.15h1412.78c11.1 0 20.1-9 20.1-20.1v-310.53c0-11.1-9-20.1-20.1-20.1h-1412.78c-11.1 0-20.09 9-20.09 20.1v310.53c0 11.1 8.99 20.1 20.09 20.1z"/>
					<path class="s3" d="m1785.2 2726.84h156.21c4 0 7.24-3.24 7.24-7.24v-255.63c0-4-3.24-7.24-7.24-7.24h-156.21c-4 0-7.24 3.24-7.24 7.24v255.63c0 4 3.24 7.24 7.24 7.24z"/>
					<path class="s3" d="m1692.47 2726.84h56.71c2.03 0 3.67-1.64 3.67-3.67v-262.77c0-2.03-1.64-3.67-3.67-3.67h-56.7c-2.03 0-3.67 1.64-3.67 3.67v262.77c0 2.03 1.64 3.67 3.66 3.67z"/>
				</g>
			</g>
			<g>
				<path class="s9" d="m1082.46 1840.82c0 0-0.04 11.07-35.81 10.38-19.94-0.38-56.93-4.74-77.82 26.47-10.79 16.1-30.44 23.46-48.88 17.45-45.91-14.95-122.76-25.92-170.57 42.79-36.49 52.44-18.49 88.37 8 111.02 19.45 16.63 23.32 45.66 7.53 65.8-15.14 19.33-21.24 47.41 6.09 85.83 61.26 86.08 219.36-20.26 219.36-20.26l147.62-250.4z"/>
				<path class="s6" d="m786.05 2021.43c-1.84 0-3.68-1.72-4.87-3.78-13.1-22.54-10.29-54.01 6.85-76.52 10.26-13.49 24.11-22.61 39-25.67 10.57-2.18 21.36-1.31 31.51-0.23 17.13 1.81 34.37 4.49 51.22 7.96q2.08 0.42 4.15 0.86c9.84 2.06 20.02 4.2 30.18 4.23q0.1 0 0.2 0c12.94 0 24.26-3.75 31.9-10.56 4.76-4.26 8.33-9.84 11.78-15.24 4.23-6.62 8.61-13.46 15.23-17.88 0.19-0.13 0.45-0.08 0.58 0.12 0.13 0.19 0.08 0.45-0.11 0.58-6.47 4.32-10.8 11.09-14.99 17.64-3.48 5.44-7.08 11.08-11.93 15.4-7.79 6.96-19.31 10.78-32.46 10.78q-0.1 0-0.2 0c-10.25-0.03-20.47-2.17-30.35-4.24q-2.07-0.44-4.15-0.87c-16.83-3.46-34.03-6.14-51.14-7.95-10.08-1.06-20.8-1.92-31.25 0.22-14.69 3.03-28.37 12.04-38.5 25.36-16.93 22.25-19.72 53.33-6.79 75.59 0.96 1.65 3.08 4.15 5.1 3.12 0.2-0.11 0.46-0.03 0.56 0.18 0.11 0.2 0.03 0.46-0.17 0.56q-0.67 0.35-1.35 0.34z"/>
				<path class="s6" d="m785.84 2010.71c-0.2 0-0.38-0.14-0.42-0.34-2.81-14.89-1.65-28.78 3.33-40.15 5.85-13.33 17.37-23.12 30.07-25.57 0.24-0.04 0.45 0.11 0.5 0.34 0.04 0.23-0.11 0.45-0.34 0.49-12.43 2.4-23.72 12-29.45 25.08-4.92 11.21-6.05 24.93-3.28 39.65 0.05 0.23-0.11 0.45-0.33 0.5q-0.05 0-0.08 0z"/>
				<path class="s10" d="m1487.29 2627.54c-0.36-0.14-196.47-343.56-222.96-375.88-4.46-5.43-11.36-8.2-18.34-7.37l-54.74 6.52-64.3 139.11 107.13-62.39c-10.6 73.31 127.01 182.26 174.21 222.02 4.79 4.03 5.18 11.26 0.86 15.79l-18.85 19.72c30.94 31.36 66.64 51.49 106.92 60.81z"/>
				<path class="s11" d="m1401.2 2574.42c0 0-12.02 3.88-16.09 14.59-1.95 5.13 0.15 10.93 4.61 14.12 19.8 14.19 85.11 59.99 115.26 68.96 2.47 0.74 4.82-1.5 4.26-4.01-1.54-7.01-6.55-20.99-22.67-41.46l1.45 2.93c1.83 3.7-2.2 7.55-5.8 5.52-20.16-11.38-61.22-36.29-81.02-60.65z"/>
				<path class="s12" d="m1410.91 2711.83c-0.33-0.21-29.75-71.1-30.08-71.31-26.98-164.24-92.79-304.9-112.2-341.92-3.27-6.22-9.46-10.33-16.47-10.93l-54.92-4.69-91.13 123.22 117.54-39.42c-25.22 69.65 87.5 204.2 125.68 252.68 3.87 4.92 2.79 12.08-2.36 15.64l-22.44 15.5c23.95 36.97 54.83 63.91 92.4 81.18z"/>
				<path class="s13" d="m1337.35 2642.38c0 0-12.56 1.37-18.71 11.04-2.95 4.62-2.07 10.73 1.65 14.76 16.52 17.9 71.22 75.97 98.92 90.86 2.27 1.22 5.03-0.5 4.99-3.07-0.1-7.17-2.17-21.88-13.81-45.19l0.82 3.16c1.05 4-3.68 6.95-6.79 4.24-17.44-15.23-52.61-47.93-67.07-75.8z"/>
				<g>
					<path class="s14" d="m940.15 2257.03c0 0-49.69 73.9-53.76 107.61-4.08 33.71 13.74 45.37 65.74 49.67 154.75 12.79 231.04-33.59 231.04-33.59 10.58-67.5 18.12-84.67 106.53-121.37 0 0-111.83 8.88-134.33 0.15-22.51-8.74-215.22-2.47-215.22-2.47z"/>
				</g>
				<g>
					<path class="s15" d="m1074.52 2247.25c0 0 57.86-55.09 86.34-91.58 15.39-19.73 20.23-45.7 13.1-69.68-13-43.81-36.1-89.18-38.21-96.24-3.23-10.83-68.11-10.38-68.11-10.38 0 0-127.66 82.85-177.82 223.2l56.34 17.54c0 0 33.33-55.92 66.26-91.48 0 0-56.99 75.29-58.99 106.1z"/>
					<path class="s16" d="m1143.59 1929.25c-0.67 2.25-17.61 58.39-18.93 59.55-1.32 1.17-37.13 3.09-53.99-8.43l34.4-76.1z"/>
					<path class="s17" d="m1184.76 2268.99l-43.48-47.3-50.21 13.52c0 0-58.53 9.07-92.03 0-33.51-9.07-33.51-9.07-33.51-9.07l-75.7-23.57-11.89 33.6c-3.02 8.54 0.01 18.01 7.39 23.25 6.55 4.66 14.22 9.77 19.12 11.91 9.97 4.36 229.67 1.38 229.67 1.38z"/>
				</g>
				<g>
					<path class="s18" d="m1040.85 2287.71q0.23 0.01 0.46 0.01l199.96-0.22c4.95 0 8.95-4.01 8.94-8.96 0-4.94-4.03-9.03-8.96-8.94l-199.96 0.22c-4.94 0.01-8.95 4.02-8.94 8.96 0 4.79 3.77 8.7 8.5 8.93z"/>
					<path class="s19" d="m1421.03 2106.16h-166.53c-12.29 0-23.47 7.09-28.71 18.2l-76.99 163.24h206.96c7.92 0 15.03-4.83 17.94-12.2l59.7-151.06c3.45-8.73-2.98-18.18-12.37-18.18z"/>
					<path class="s3" d="m1303.71 2189.86c-3.61 11.21-0.94 22.1 5.95 24.32 6.9 2.22 15.42-5.07 19.03-16.28 3.61-11.22 0.94-22.1-5.96-24.32-6.9-2.22-15.41 5.06-19.02 16.28z"/>
				</g>
				<g>
					<path class="s20" d="m1175.58 1853.05c0 0 15.2 27.25 5.07 72.01-10.13 44.76-33.43 50.9-49.5 41.71-16.07-9.2-37.44-26.37-43.8-65.35-6.37-38.99 67.62-82.69 88.23-48.37z"/>
					<path class="s21" d="m1116.35 1895.92c0 0 20.27-61.24 63.18-28.68l4.55 14.78c0 0 36.3-14.41 20.61-47.04-15.69-32.63-53.8-45.5-91.56-19.53-37.76 25.97-57.61 47.59-52.36 78.2 5.25 30.61 27.29 17.74 27.29 17.74 0 0 2.17-23.11 12.62-28.23 10.45-5.12 11.94 12.06 11.94 12.06z"/>
					<path class="s22" d="m1107.42 1897.54c0 0 10.61-31.42-8.59-30.59-19.2 0.84-8.41 30.11-3.5 40.69z"/>
				</g>
			</g>
			<g>
				<g>
					<path class="s23" d="m1614.2 1722.23h772.17c21.92 0 39.68-14.71 39.68-32.87v-340.9c0-18.91-19.21-33.92-42-32.81l-772.18 37.52c-20.97 1.01-37.35 15.4-37.35 32.81v303.38c0 18.16 17.76 32.87 39.68 32.87z"/>
					<path fill-rule="evenodd" class="s24" d="m1774.41 1722.47l177.93 108.77v-108.77z"/>
				</g>
				<g>
					<path class="s6" d="m1764.05 1466.81v58.21h67.29v-58.21h18.16v139.12h-18.16v-65.22h-67.29v65.22h-17.96v-139.12z"/>
					<path class="s6" d="m1952.69 1540.71h-54.08v50.16h60.27v15.06h-78.23v-139.12h75.14v15.07h-57.18v43.97h54.08z"/>
					<path class="s6" d="m1982.19 1466.81h17.96v124.06h59.45v15.06h-77.4c0 0 0-139.12-0.01-139.12z"/>
					<path class="s6" d="m2079.61 1466.81h17.95v124.06h59.45v15.06h-77.4z"/>
					<path class="s6" d="m2287.86 1534.93c0 47.89-29.1 73.27-64.6 73.27-36.74 0-62.54-28.48-62.54-70.59 0-44.17 27.45-73.07 64.6-73.07 37.98 0 62.54 29.11 62.54 70.39zm-107.95 2.27c0 29.72 16.1 56.35 44.38 56.35 28.49 0 44.58-26.22 44.58-57.8 0-27.65-14.44-56.55-44.37-56.55-29.73 0-44.59 27.45-44.59 58z"/>
					<path class="s6" d="m2307.05 1595.41c0-7.44 5.16-12.8 12.18-12.8 7.43 0 12.17 5.36 12.17 12.8 0 7.22-4.74 12.79-12.17 12.79-7.23 0-12.18-5.57-12.18-12.79zm5.16-29.52l-2.89-99.08h19.82l-2.9 99.08z"/>
				</g>
			</g>
			<g>
				<g>
					<path class="s25" d="m2400.26 1158.29h622.4c17.66 0 31.98-14.72 31.98-32.87v-340.9c0-18.91-15.48-33.92-33.85-32.82l-622.4 37.52c-16.91 1.02-30.11 15.41-30.11 32.82v303.38c0 18.15 14.32 32.87 31.98 32.87z"/>
					<path fill-rule="evenodd" class="s26" d="m2568.17 1158.53l177.94 113.79v-113.79z"/>
				</g>
				<g>
					<path class="s6" d="m2539.81 874.85c-0.66 2.01-2.88 3.13-6.2 2.91-5.76 17-12.65 34.25-20.21 50.64l8.45 1.95c-0.44 2.24-2.22 3.82-6 4.3v141.93l-26.55 0.61v-104.62c-4.92 7.69-10.08 14.95-15.24 21.32-3.59-6.02-11.46-17.85-16.19-23.65 20.01-23.61 39.7-65.29 51.3-104.99zm127.83 30.68c0 1.1-2.79 26.88-9.47 54.03l-15.98-2.7c12.32 23.24 22.87 53.27 26.74 73.67l-24.79 9.73c-3.03-20.47-13.64-51.9-25.37-75.19l22.56-8.42-5.2-0.84c1.09-6.85 2.17-16.36 3.47-26.08l-26.7 0.19v114.72c0 20.37-4.36 29.99-42.44 30.88-1.31-7.75-5.27-19.69-9.01-26.74 9.24 0.04 18.68-0.16 21.74-0.22 2.85-0.06 3.73-0.96 3.73-3.85v-114.61l-23.49 0.17c-7.05 15.65-14.99 29.78-23.84 41.03-4.65-4.86-14.18-12.8-20.18-16.77 16.42-19.81 29.91-54.71 37.19-88.61l30.76 8.21c-0.66 1.78-2.63 3.12-5.92 2.9-2.41 9.56-5.27 19.13-8.56 28.48l80.76-0.36zm-86.86 61.51c-0.44 1.79-2.63 2.92-5.49 2.96-6.59 26.11-17.81 55.02-30.83 73.32-5.09-3.91-14.84-9.76-20.83-12.78 12.42-16.31 22.59-44.59 28.11-70.75z"/>
					<path class="s6" d="m2768.41 908.34l13.43 3.2-1.26 4.35c-2.51 36.97-7.97 67.48-17.64 92 9.46 7.89 17.85 15.79 23.09 22.65l-15.1 21.38c-4.63-6.21-11.36-13.26-19.16-20.52-9.93 17.21-22.85 30.59-38.79 41.24-3.41-6.49-10.02-15.77-15.35-20.48 14.29-8.19 25.98-20.67 35.1-37.01-3.81-3.22-7.84-5.99-11.67-8.99l-1.7 7.03-20.88-10.84c4.91-18.28 10.24-43.11 15.35-68.78l-16.84 0.13v-24.35l21.31-0.11c2.76-15.33 5.31-30.21 7.43-43.77l28.78 3.05c-0.21 1.96-1.9 3.27-5.49 3.49-2.11 11.35-4.43 24.01-6.97 37.11l22.15-0.11zm-31.23 25.05c-3.38 16.42-6.99 33.06-10.38 48.41 5.09 3.21 10.59 6.84 16.1 10.7 5.91-16.88 10.14-36.77 12.66-59.25zm155.59 26.05v24.46l-45.19 0.62v55.64c0 21.36-7.03 29.28-45.87 29.76-1.25-7.13-5.43-18.32-8.77-25.41 7.73 0.06 15.86 0.11 20.86 0.01 7.06-0.15 8.72-0.18 8.72-4.07v-55.59l-44.45 0.6v-24.78l44.45-0.48v-33.31l7.68 0.38c7.04-7.61 14.07-17.57 20.06-27.09l-64.65 0.25v-24.1l82.57-0.11 4.11-1.29 19.05 11.99c-0.82 1.51-2.87 2.59-4.91 3.02-9.63 15.07-24.63 35.17-38.85 49.5v20.49z"/>
					<path class="s6" d="m2924.51 1030.29c0-11.54 7.5-19.79 17.81-19.97 10.49-0.17 17.74 7.8 17.74 19.29 0 11.07-6.84 19.52-17.74 19.75-10.92 0.24-17.81-8.17-17.81-19.07zm29.51-35.29l-23.43 0.35-4.05-112.36 31.51-0.07z"/>
				</g>
			</g>
			<g>
				<g>
					<g>
						<path class="s27" d="m1314.63 1472.79h-622.4c-17.66 0-31.98-13.03-31.98-29.1v-301.72c0-16.73 15.49-30.02 33.85-29.04l622.4 33.21c16.91 0.9 30.11 13.63 30.11 29.04v268.51c0 16.07-14.32 29.1-31.98 29.1z"/>
						<path fill-rule="evenodd" class="s28" d="m1146.72 1469.62l-177.93 100.71v-100.71z"/>
					</g>
				</g>
				<g>
					<path class="s6" d="m790.92 1243.25v58.2h67.29v-58.2h18.17v139.12h-18.17v-65.23h-67.29v65.23h-17.95v-139.12z"/>
					<path class="s6" d="m1026.42 1311.36c0 47.89-29.1 73.28-64.6 73.28-36.75 0-62.55-28.48-62.55-70.59 0-44.18 27.46-73.07 64.61-73.07 37.98 0 62.54 29.1 62.54 70.38zm-107.95 2.27c0 29.73 16.1 56.35 44.38 56.35 28.48 0 44.58-26.21 44.58-57.79 0-27.66-14.45-56.56-44.37-56.56-29.73 0-44.59 27.45-44.59 58z"/>
					<path class="s6" d="m1049.73 1243.25h17.96v124.05h59.45v15.07h-77.41z"/>
					<path class="s6" d="m1169.64 1338.61l-14.45 43.76h-18.57l47.27-139.12h21.67l47.47 139.12h-19.2l-14.85-43.76zm45.61-14.04l-13.62-40.04c-3.1-9.08-5.16-17.34-7.22-25.39h-0.42c-2.06 8.26-4.33 16.72-7.02 25.18l-13.62 40.25z"/>
					<path class="s6" d="m1269.33 1371.84c0-7.43 5.16-12.8 12.18-12.8 7.43 0 12.17 5.37 12.17 12.8 0 7.22-4.74 12.8-12.17 12.8-7.23 0-12.18-5.58-12.18-12.8zm5.16-29.51l-2.89-99.08h19.81l-2.89 99.08z"/>
				</g>
			</g>
			<g>
				<path class="s29" d="m2585.84 1931.46c4.79-4.66 4.57-12.42-0.47-16.8l-596.4-532.13c-1.67-1.49-4.08-1.83-6.1-0.86-3.55 1.69-4.26 6.44-1.36 9.1l588.65 540.91c4.46 4.1 11.34 4 15.68-0.22z"/>
				<path class="s30" d="m2934.57 3241.55c-0.01-0.84 0.05-1.7 0.26-2.56 12.77-50.61 76.13-82.13 76.13-82.13l25.11 1.96c14.43 44.61 12.58 71.97 10.26 84.16q-0.11 0.5-0.26 0.99c-20.71 1.85-63.34 3.06-111.5-2.42z"/>
				<path class="s31" d="m3046.07 3243.97c-1.12 4.07-4.12 7.24-7.97 8.05-29.46 6.2-76.29 1.21-95.95-1.36-4.33-0.57-7.5-4.58-7.58-9.11 48.16 5.48 90.79 4.28 111.5 2.43z"/>
				<path class="s32" d="m3145.5 2345.62c15.51 16.55 38.34 30.85 54.4 39.77-23.99 29.66-56.46 59.36-99.44 88.43l-12.3 27.61-39.41-47.24c0 0 70.72-35.2 96.75-108.57z"/>
				<path class="s33" d="m3046.16 3121.43l-10.63 51.19c-0.78 3.75-3.66 6.56-7.15 6.89-4.28 0.4-10.36 0.63-16.48-0.27-5.48-0.8-9.3-6.38-8.33-12.36l7.39-45.45z"/>
				<path class="s34" d="m2825.84 3243.46c27.73-0.78 42.07-4.04 49.48-7.07 0.02 2.75 0.01 5.56-0.08 8.47-0.1 3.1-2.4 5.58-5.23 5.56l-152.25-0.98c-4.86-0.03-7.7-5.67-5.59-10.12 19.96 1.65 70.8 5.34 113.67 4.14z"/>
				<path class="s35" d="m2712.17 3239.32c0.18-0.39 0.34-0.78 0.6-1.15 13.45-18.79 47.69-56.2 115.36-72.42l32.47-1.03c0 0 14.45 25.13 14.72 71.67-7.41 3.03-21.75 6.29-49.48 7.07-42.87 1.2-93.71-2.49-113.67-4.14z"/>
				<path class="s36" d="m2866.61 3115.52c-0.36 2.42-4.81 39.2-6.53 53.46-0.41 3.39-2.86 6.01-5.96 6.38-5.52 0.66-14.47 1.26-22.3-0.34-4.22-0.87-7.27-4.92-7.27-9.64v-57.73z"/>
				<path class="s37" d="m2892.66 2444.35c0 0-78.3 297.56-76.89 672.02 0.03 6.83 4.82 12.72 11.5 14.13 9.85 2.07 24.32 4.54 36.3 4.2 6.4-0.18 11.74-4.92 12.82-11.23 10.98-64.38 73.98-427.09 109.88-485.97 0 0 23.62 323.04 16.07 490.64-0.19 4.16 2.86 7.78 7.01 8.26 6.28 0.72 16.34 1.27 29.14-0.08 4.85-0.52 8.77-4.19 9.47-9.03 7.82-54.49 52.83-378.83 50.91-612.48-0.1-13.17-34.84-70.46-34.84-70.46z"/>
				<path class="s38" d="m2772.58 2043.57c13.72-35.05 36.84-59.04 60.1-86.77 87.17 15.81 230.04 29.91 289.62 37.42 18.6 2.34 35.62 11.51 47.88 25.7 48.61 56.25 155.28 210.27 29.72 365.47-16.06-8.92-38.89-23.22-54.4-39.77 13.89-39.16 15.03-89.2-14.09-150.56q-1.48 7.3-3.71 14.41c-40.13 127.12-42.27 232.9-42.18 257.28 0.01 3.31-1.97 6.29-5.05 7.52-52.81 21.17-154.46 8.57-188.58 3.49-6.26-0.94-10.47-6.76-9.6-13.03 16.74-121.33-69.2-320.92-91.9-370.91-3.33-7.32-9.18-13.19-16.5-16.5q-5.5-2.5-10.82-5.07c2.71-9.68 5.82-19.25 9.51-28.68z"/>
				<path class="s39" d="m3031.03 1877.49l6.22 108.47c0.18 3.2-1.9 6.08-5.01 6.87-13.77 3.47-51.82 10.38-84.93-8.46-4.29-2.44-6.28-7.59-4.93-12.34l27.7-97.46z"/>
				<g>
					<path class="s40" d="m2963.16 1758.97c-1.41 1.33-59.42 115.25-59.42 115.25l65.75 31.74 71.02-99.8c0 0-53.78-69.37-77.35-47.19z"/>
					<path class="s41" d="m3011.42 1808.92c1.17 3.03 0.88 6.42-0.79 9.21l-32.79 54.66q-0.74 1.25-1.8 2.24c-3.9 3.64-17.26 14.2-27.58-0.18-8.8-12.27-17.06-23.42-25.91-28.02-5.17-2.68-11.52-0.54-14.15 4.66-5.4 10.71-15.87 32.54-22.44 53.24-1.65 5.19 1.03 10.76 6.07 12.8 13.32 5.39 39.63 15.15 62.98 18.37 3.84 0.53 7.63-1.09 9.92-4.22 10.04-13.76 38.35-52.22 48.02-61.84 8.98-8.95 25.54-5.57 33.01-3.43 2.83 0.82 5.85 0.42 8.38-1.1 7.57-4.56 20.79-15.92 8.7-35.16-3.01-4.78-1.47-11.15 3.25-14.26 8.45-5.56 17.63-16 8.89-32.91-8.85-17.12-24.66-18.66-35.43-17.34-4.76 0.58-9.6-1.92-11.42-6.36-0.82-1.97-2.42-3.65-5.41-4.26-5.64-1.14-9.35-6.3-8.24-11.95 1.9-9.69 0.47-22.27-15-30.78-28.37-15.6-53.22 9.82-59.54 31.27-6.31 21.46 25.4 36.62 45.36 39.15 14.65 1.85 22.69 17.85 25.92 26.21z"/>
					<path class="s42" d="m3000.63 1889.91c0 0 12.62-36.91 28.76-35.56 16.15 1.36 28.86 17.45 8.85 35.53-24.9 22.49-37.61 0.03-37.61 0.03z"/>
				</g>
				<path class="s43" d="m3136.74 2185.55c21.28-58.25 13.56-128.58 13.48-129.29l-5.86 0.67c0.07 0.69 7.63 69.68-13.17 126.59z"/>
				<path class="s44" d="m2989.15 2629.91c1.31 0 2.51-0.88 2.85-2.21 6.5-25.05 55.12-52.57 55.61-52.84 1.42-0.8 1.93-2.6 1.13-4.02-0.8-1.42-2.59-1.93-4.02-1.13-2.09 1.17-51.31 29.03-58.43 56.51-0.41 1.58 0.54 3.19 2.11 3.59q0.38 0.1 0.75 0.1z"/>
				<g>
					<path class="s45" d="m2573.18 1990.46c82.89 30.29 259.5-33.66 259.5-33.66l12.16 144.3c-141.44 44.72-233.47 31.7-293.32-5.83-3.72-42.65 9.1-79.77 21.67-104.81z"/>
					<path class="s46" d="m2441.22 1841.53l34.69-6.87c0 0 9.46 110.36 86.71 151.16 3.31 1.75 6.85 3.28 10.56 4.64-12.56 25.04-25.38 62.16-21.66 104.81-121.62-76.26-110.29-253.74-110.29-253.74z"/>
				</g>
				<path class="s47" d="m2474.15 1844.28l1.76-9.62c0 0 7.23-23.5-11.9-46.63-27.66-33.43-47.91-21.14-47.91-21.14 0 0 1.44 7.15 1.34 13.49-0.08 5.12-6.22 7.71-9.98 4.25l-45.15-41.49c0 0-12.64 65.89 84.18 111.18z"/>
			</g>
		</g>
	</g>
</svg>